<?xml version="1.0" encoding="utf-8"?>
<!-- Generator: Adobe Illustrator 16.0.0, SVG Export Plug-In . SVG Version: 6.00 Build 0)  -->
<!DOCTYPE svg PUBLIC "-//W3C//DTD SVG 1.1//EN" "http://www.w3.org/Graphics/SVG/1.1/DTD/svg11.dtd">
<svg version="1.1" id="Layer_1" xmlns="http://www.w3.org/2000/svg" xmlns:xlink="http://www.w3.org/1999/xlink" x="0px" y="0px"
	 width="100px" height="100px" viewBox="0 0 208.079 68" enable-background="new 0 0 208.079 68" xml:space="preserve">
<g>
	<path fill="#242528" d="M108.239,25.228c-1.557-1.324-3.199-2.316-4.93-2.979c-1.732-0.662-3.552-0.992-5.461-0.992
		c-3.695,0-6.7,1.185-9.017,3.556c-2.316,2.369-3.475,5.442-3.475,9.211c0,3.649,1.128,6.657,3.383,9.029
		c2.254,2.371,5.098,3.556,8.532,3.556c2,0,3.905-0.354,5.715-1.063c1.808-0.708,3.544-1.777,5.205-3.209v6.212
		c-1.478,1.062-3.086,1.854-4.825,2.378c-1.74,0.523-3.625,0.784-5.657,0.784c-2.585,0-4.975-0.425-7.169-1.269
		c-2.193-0.849-4.122-2.094-5.784-3.744c-1.647-1.613-2.913-3.52-3.799-5.713c-0.884-2.193-1.327-4.527-1.327-7.006
		s0.443-4.807,1.327-6.985c0.886-2.178,2.168-4.091,3.846-5.737c1.678-1.664,3.603-2.922,5.772-3.774
		c2.171-0.856,4.518-1.282,7.042-1.282c1.986,0,3.879,0.288,5.68,0.865c1.802,0.577,3.547,1.45,5.241,2.621L108.239,25.228z"/>
	<path fill="#242528" d="M132.866,50.812h-5.012v-2.84c-0.893,1.264-1.938,2.201-3.128,2.816c-1.192,0.613-2.56,0.922-4.099,0.922
		c-3.094,0-5.529-1.059-7.308-3.173c-1.778-2.116-2.666-5.015-2.666-8.695c0-3.491,0.905-6.313,2.724-8.46
		c1.815-2.148,4.188-3.222,7.111-3.222c1.783,0,3.313,0.374,4.582,1.121c1.271,0.747,2.197,1.82,2.782,3.22v-3.579h5.013V50.812
		L132.866,50.812z M127.995,39.797c0-2.263-0.531-4.024-1.584-5.288c-1.054-1.263-2.529-1.894-4.422-1.894
		c-1.895,0-3.383,0.649-4.466,1.951c-1.086,1.301-1.629,3.105-1.629,5.413c0,2.326,0.524,4.121,1.569,5.381
		c1.047,1.264,2.525,1.896,4.434,1.896c1.801,0,3.268-0.688,4.396-2.058C127.427,43.829,127.995,42.028,127.995,39.797z"/>
	<path fill="#242528" d="M152.829,35.156c-0.771-0.846-1.666-1.492-2.689-1.94c-1.021-0.446-2.128-0.668-3.313-0.668
		c-2.051,0-3.688,0.662-4.92,1.985c-1.23,1.324-1.847,3.079-1.847,5.265c0,2.278,0.619,4.068,1.858,5.37
		c1.24,1.299,2.951,1.95,5.139,1.95c1.215,0,2.3-0.229,3.255-0.684c0.956-0.455,1.793-1.143,2.517-2.064v5.771
		c-0.924,0.524-1.912,0.914-2.965,1.178c-1.056,0.261-2.176,0.392-3.361,0.392c-3.432,0-6.231-1.093-8.393-3.274
		c-2.164-2.188-3.244-5.02-3.244-8.5c0-3.524,1.12-6.369,3.36-8.53c2.237-2.163,5.166-3.246,8.782-3.246
		c1.142,0,2.188,0.113,3.143,0.336c0.954,0.222,1.846,0.566,2.678,1.026V35.156z"/>
	<polygon fill="#242528" points="157.711,50.812 157.711,33.31 153.879,33.31 153.879,28.921 157.711,28.921 157.711,20.632 
		162.724,20.632 162.724,28.921 166.556,28.921 166.556,33.31 162.724,33.31 162.724,50.812 	"/>
	<path fill="#242528" d="M173.358,28.922v12.329c0,2.123,0.439,3.646,1.316,4.572c0.878,0.925,2.302,1.385,4.271,1.385
		c1.972,0,3.396-0.46,4.271-1.385c0.879-0.926,1.316-2.449,1.316-4.572V28.922h5.01v10.829c0,4.188-0.838,7.229-2.517,9.119
		c-1.678,1.893-4.356,2.841-8.034,2.841c-3.74,0-6.451-0.938-8.129-2.815c-1.677-1.881-2.516-4.928-2.516-9.145V28.922H173.358z"/>
	<path fill="#242528" d="M190.483,46.839l4.156-2.264c0.305,1.094,0.876,1.927,1.707,2.494c0.83,0.57,1.902,0.854,3.21,0.854
		c1.122,0,2.003-0.258,2.644-0.772c0.639-0.518,0.959-1.221,0.959-2.114c0-1.185-1.141-2.201-3.418-3.047
		c-0.77-0.277-1.363-0.509-1.777-0.691c-2.34-0.971-3.975-1.955-4.907-2.956c-0.933-1-1.396-2.216-1.396-3.649
		c0-1.954,0.764-3.541,2.295-4.755c1.533-1.216,3.561-1.824,6.084-1.824c1.695,0,3.146,0.311,4.354,0.934
		c1.207,0.624,2.089,1.513,2.644,2.668l-3.556,2.448c-0.263-0.693-0.721-1.244-1.375-1.652c-0.653-0.407-1.412-0.611-2.272-0.611
		c-0.955,0-1.721,0.228-2.297,0.681c-0.576,0.455-0.865,1.058-0.865,1.812c0,1.141,1.293,2.18,3.877,3.118
		c0.816,0.294,1.447,0.531,1.894,0.716c2.019,0.801,3.462,1.705,4.329,2.713c0.87,1.009,1.307,2.268,1.307,3.774
		c0,2.185-0.793,3.897-2.377,5.136c-1.588,1.24-3.772,1.861-6.56,1.861c-2.142,0-3.918-0.402-5.333-1.203
		C192.389,49.71,191.284,48.487,190.483,46.839"/>
</g>
<path fill="#72AB53" d="M36.092,1.538c-19.242,0-34.839,15.598-34.839,34.834c0,9.089,3.479,17.37,9.188,23.568
	c-1.075-3.135-1.664-6.486-1.664-9.983c0-1.11,0.063-2.199,0.172-3.285l-4.451-1.181l4.666-0.391
	c0.592-3.771,1.874-7.304,3.707-10.498l-4.318-3.562l5.33,1.925c0.481-0.726,0.992-1.433,1.534-2.114l-2.188-2.389l2.892,1.529
	c1.464-1.73,3.114-3.294,4.93-4.664l-3.816-7.776l6.614,7.128l6.065,6.557c-1.551,1.754-2.801,3.766-3.71,5.937l-5.946-1.901
	l5.382,3.441c-0.919,2.776-1.289,5.764-1.014,8.774l-2.917,0.155l3.039,0.905c0.003,0.009,0.007,0.011,0.007,0.024
	c0.427,2.72,1.299,5.211,2.494,7.436l-5.54,0.983l6.839,1.155c0.665,0.961,1.388,1.871,2.184,2.705
	c6.413,6.345,21.398,8.769,31.283-1.225c5.542-6.168,8.904-14.314,8.904-23.26C70.918,17.136,55.319,1.538,36.092,1.538
	 M46.445,24.39c-1.905-0.089-3.719,0.059-5.433,0.407l-1.549-3.003l0.433,3.265c-3.046,0.805-5.738,2.271-7.989,4.206l-7.611-6.074
	c2.92-1.673,6.132-2.889,9.559-3.537L33.796,8.836l3.295,10.382c0.835-0.076,1.687-0.118,2.536-0.118
	c1.007,0,1.987,0.064,2.965,0.156l0.901-4.539l0.697,4.732c1.68,0.245,3.306,0.634,4.883,1.139l3.785-8.166l-1.077,9.184
	c2.195,0.942,4.259,2.138,6.153,3.543l4.92-6.05l-2.761,7.81c2.312,2.053,4.314,4.445,5.921,7.104
	C60.207,28.465,55.026,24.817,46.445,24.39z"/>
</svg>
