<?xml version="1.0" encoding="UTF-8"?>
<svg xmlns="http://www.w3.org/2000/svg" version="1.1" viewBox="0 0 96 9.1">
  <defs>
    <style>
      .cls-1 {
        fill: #12aca8;
      }

      .cls-2 {
        fill: #59595b;
      }
    </style>
  </defs>
  <!-- Generator: Adobe Illustrator 28.8.0, SVG Export Plug-In . SVG Version: 1.2.0 Build 7)  -->
  <g>
    <g id="Layer_1">
      <g id="Layer_1-2" data-name="Layer_1">
        <g>
          <path class="cls-2" d="M1.47,2.31h-.03c0,1.5-.03,3.01,0,4.51,0,.06,0,.09-.06.12H.09S0,6.91,0,6.85V.17s.03-.09.09-.09h1.96s.09.03.12.09l1.5,4.48s.09.12.12,0L5.23.17s.06-.09.12-.09h1.96s.09.06.09.12v6.59s-.03.12-.09.12h-1.26s-.09-.03-.09-.09V2.25s0-.03-.03-.03h0v.03l-1.56,4.54s-.06.09-.09.09h-1.02s-.09-.03-.12-.09L1.56,2.28s0-.03-.03-.06l-.06.09ZM11.34,5.86c1.32.18,1.62-.6,1.62-1.74V.23c0-.06.03-.12.09-.12h1.35s.09.06.09.12v4.24c0,2.11-1.71,2.83-3.52,2.62-1.77-.21-2.29-1.32-2.29-2.98V.2c0-.06.06-.12.12-.12h1.26s.09.03.09.09h0v4.3c0,.81.39,1.26,1.17,1.35v.03ZM18.8,1.46v5.41s-.03.09-.09.09h-1.35s-.09-.03-.09-.09V1.46s-.03-.09-.09-.09h-1.87s-.09-.03-.09-.09V.17s.06-.09.12-.09h5.38s.09.06.09.12h0v1.08s-.06.09-.15.09h-1.84s-.09.03-.09.09h.06ZM23.1,4.71c.06,1.35,2.17,1.53,2.65.51.12-.24.15-.69.15-1.41V.23c0-.06.03-.09.09-.09h1.35s.06.03.06.09v3.13c0,1.68,0,2.98-1.59,3.55-1.65.6-4.12.03-4.21-2.11-.03-.81-.03-2.35,0-4.57,0-.06.03-.12.06-.12h1.23s.21.09.21.24h0c-.06,1.5-.06,2.98,0,4.36h0ZM29.99,5.55l-.48,1.32s-.06.09-.12.09h-1.35s-.06-.03-.03-.09h0L30.47.29s.09-.12.12-.12h1.44s.06.06.09.12l2.47,6.62s0,.09-.03.12h-1.38s-.09-.03-.09-.09l-.45-1.35s-.06-.06-.09-.06h-2.41s-.09.03-.12.09h0l-.03-.06ZM30.47,4.23s0,.06.03.06h1.59s.06,0,.06-.03h0l-.78-2.29s-.03-.03-.06-.03l-.03.03-.81,2.29v-.03ZM36.82,5.71h3.13s.12.03.12.09v1.11s-.06.09-.12.09h-4.63s-.09-.03-.09-.09h0V.26s.06-.12.09-.12h1.35s.09.06.09.12v5.35s.03.09.09.09h-.03Z"/>
          <path class="cls-2" d="M65.52,4.89c0,2.5,4.45,2.56,4.45.39,0-2.32-4.45-.84-4.66-3.31-.21-2.53,4.6-2.74,4.93,0,0,.06,0,.12-.06.12h-.27s-.09-.06-.09-.12c-.18-1.65-2.44-2.08-3.58-1.2-.9.69-.48,2.02.6,2.26,1.38.3,3.64.48,3.58,2.26-.06,1.8-2.26,2.08-3.58,1.71-1.08-.3-1.65-1.02-1.71-2.11,0-.06,0-.12.06-.12.09-.03.18-.06.27-.03.03,0,.06.06.06.12h0v.03ZM41.45,3.3h3.31s.12.03.12.09h0v.24s-.09.06-.15.06h-3.25s-.12.03-.12.09h0v3.28h-.33s-.09-.06-.09-.12h0V.29s.03-.09.09-.09h4.12s.12.03.12.09h0v.24s-.09.06-.15.06h-3.61s-.09.03-.09.09c-.06.87-.06,1.71,0,2.53,0,.06.03.09.09.09h-.06ZM48.34,6.85c2.05.09,2.35-1.23,2.35-3.01V.35c0-.06.03-.12.09-.12h.27s.09.06.09.12v4.3c-.09,1.74-.99,2.62-2.71,2.59-2.26-.03-2.53-1.59-2.53-3.55V.35c0-.06.03-.12.09-.12h.24s.09.03.09.09v3.7c0,1.44.33,2.77,2.05,2.83h-.03ZM57.25,6.37V.35s.03-.12.09-.12h.24s.09.06.09.12h0v6.59s0,.12-.09.12h-.36s-.09-.03-.12-.12l-4.15-6.02s-.15-.12-.15.03v5.6c0,.27.12.63-.39.48-.06,0-.09-.06-.09-.09V.29s.06-.09.09-.09h.42s.09.03.15.09l4.21,6.08s.09.09.09,0h-.03ZM61.55.23c2.26.09,3.04,2.23,2.74,4.15-.51,3.01-3.01,2.71-5.29,2.65-.06,0-.09-.03-.09-.06V.29s.03-.06.06-.06h2.59ZM63.9,3.81c.12-3.13-1.96-3.37-4.48-3.22-.06,0-.09.03-.09.06v5.96s.03.06.09.06c2.26.06,4.36.03,4.48-2.86h0Z"/>
          <g>
            <path class="cls-1" d="M74.09,5.25c.39.06.72-.12.81-.51.27-1.11-.9-1.47-1.17-2.38-.42-1.29,2.05-1.93,2.38-.87.09.3,0,.78-.42.84-.69.12.21-.54-.24-.99-.03-.03-.09-.06-.15-.06-.51,0-.75.18-.69.6.12.84,1.17,1.02,1.32,1.99.39,2.47-3.4,2.5-2.95.54.15-.57,1.08-1.14,1.35-.42,0,.03,0,.09-.06.09h0c-.72.21-.84.57-.33,1.08.03.03.09.06.15.06h0v.03ZM87.45,3.39l-.45,2.14s-.06.12-.12.12h-.75s-.06-.06-.06-.12h0l.84-3.97s0-.18-.12-.09c-.57.39-.78.93-.66,1.62,0,.03,0,.06-.06.09h0c-.66-.09-.63-.72-.33-1.14.51-.72,1.2-1.05,2.17-1.05.06,0,.09.03.09.09h0l-.36,1.65s0,.12.06.12h.75s.06-.06.06-.12l.36-1.65s.06-.09.12-.09h.75s.06.06.06.09h0l-.93,4.39s-.06.15-.09.15h-.75s-.06-.03-.06-.09h0l.45-2.11s0-.09-.03-.09h-.75s-.09.03-.09.06h-.09Z"/>
            <circle class="cls-1" cx="83.81" cy="1.7" r=".51"/>
            <circle class="cls-1" cx="93.95" cy="1.7" r=".48"/>
            <path class="cls-1" d="M80.95,2.73c1.62-.9,1.32.84,1.11,1.68-.09.33-.12.96.45.54.06-.03.09-.09.09-.15.24-.72.39-1.44.51-2.17,0-.06.06-.12.12-.12h.75s.06.06.06.12h0c-.15.63-.27,1.23-.39,1.84-.06.27-.18.63.27.6.03,0,.06,0,.09.06h0c-.06.69-.99.66-1.29.12,0-.03-.06-.03-.09,0h0c-.27.39-.66.51-1.14.36-.36-.09-.48-.39-.36-.81.06-.24.54-1.87-.03-1.68-.18.06-.3.18-.33.36l-.45,2.05s-.06.12-.09.12h-.72s-.09-.06-.09-.12c0-.3-.27.03-.42.09-.42.18-.75.06-.96-.33,0-.03-.06-.06-.09,0h0c-.84.69-1.8.48-1.71-.78.09-.93.93-2.44,2.05-1.87,0,0,.06,0,.15-.03.27-.06.57-.09.84-.06.03,0,.06.06.06.12h0c-.15.66-.27,1.32-.45,1.99-.12.45,0,.6.39.39.15-.09.24-.21.3-.42l.69-3.1s.06-.12.09-.12l.78-.09s.06.03.06.09h0l-.27,1.26s0,.09.06.06h-.03ZM78.13,2.94c-.72-.15-.96,1.38-.93,1.84,0,.06,0,.12.06.15.75.69.96-1.41,1.02-1.74,0-.09-.06-.21-.15-.24ZM93.89,5.01c.75,0-.33,1.35-1.02.24,0,0-.06-.03-.09,0h0c-.36.42-1.2.69-1.47,0,0-.03-.06-.06-.09-.03h0c-.45.51-.93.57-1.5.15-.06-.03-.09-.09-.09-.15-.24-1.08.45-3.34,1.96-2.65h.15c.24-.12.51-.15.81-.06.06,0,.06.06.06.12-.18.66-.3,1.35-.42,2.02-.03.24,0,.45.27.42.21,0,.33-.18.42-.54l.42-1.93s.06-.12.12-.12h.72s.09.06.09.09h0l-.45,2.23s.03.15.09.15h.03v.06ZM91.45,2.94c-.78-.33-1.02,1.56-.96,1.99,0,.12.12.18.24.18h.03c.63-.21.69-1.41.81-1.96,0-.09,0-.18-.12-.21h0Z"/>
          </g>
          <path class="cls-1" d="M86.88,9.1s-.12,0-.15-.06c-.09-.09-.09-.24,0-.33.03-.03.84-.81,2.35-1.41,1.41-.54,3.7-1.05,6.74-.36.12,0,.21.15.18.27,0,.12-.15.21-.27.18-2.92-.69-5.11-.21-6.47.33-1.44.57-2.23,1.29-2.23,1.32-.03.03-.09.06-.15.06Z"/>
        </g>
      </g>
    </g>
  </g>
</svg>