<?xml version="1.0" encoding="UTF-8"?>
<svg xmlns="http://www.w3.org/2000/svg" version="1.1" viewBox="0 0 1072.13 112">
  <defs>
    <style>
      .cls-1 {
        fill: #14886f;
      }

      .cls-2 {
        fill: #58585a;
      }
    </style>
  </defs>
  <!-- Generator: Adobe Illustrator 28.8.0, SVG Export Plug-In . SVG Version: 1.2.0 Build 7)  -->
  <g>
    <g id="Layer_1">
      <g>
        <path class="cls-1" d="M838.52,22.89c20.2-3.22,16.55,17.5,6.49,12.68,11.13-12.6-13.75-14.53-6.75.52,2.2,4.72,15.48,8.97,12.99,23.81-2.38,14.12-29.01,16.17-31.17,3.62-2.15-12.51,11.16-15.18,14.03-11.39,2.93,3.87-8.51,1.34-6.75,10.35,1.54,7.9,18.4,5.58,12.99-9.32-2.54-7-18.63-15.29-9.87-25.88,2.68-1.47,5.37-2.93,8.05-4.4Z"/>
        <path class="cls-1" d="M967.86,22.89c2.16.09,4.33.17,6.49.26-1.13,6.3-2.25,12.59-3.38,18.89h8.83l.78-.78c1.3-6.12,2.6-12.25,3.9-18.37,3.03.09,6.06.17,9.09.26-3.55,15.78-7.1,31.57-10.65,47.35-2.86-.09-5.71-.17-8.57-.26,1.47-8.02,2.94-16.04,4.42-24.06-3.03.09-6.06.17-9.09.26-1.73,7.94-3.46,15.87-5.19,23.81h-8.83c2.94-14.32,5.89-28.64,8.83-42.95-7.77,2.47-9.87,10.4-8.57,17.85-14.07-1.37-2.19-20.55,11.95-22.25Z"/>
        <path class="cls-1" d="M930.98,24.96c7.91-1.23,8.37,11.9-.52,9.83-4.8-1.11-4.06-9.12.52-9.83Z"/>
        <path class="cls-1" d="M1035.4,24.96c8.3-1.3,7.76,12.25-1.04,9.83-3.64-1-4.21-9.01,1.04-9.83Z"/>
        <path class="cls-1" d="M902.93,25.99c.61.09,1.21.17,1.82.26-1.04,5-2.08,10.01-3.12,15.01,3.77-1.78,8.1-4.51,12.21-1.81,7.93,5.22-7.3,28.44,3.64,25.36,4.73-1.33,6.91-20.85,8.05-25.62h9.35c-.76,4.21-5.69,22.54-4.68,24.84,1.56.35,3.12.69,4.68,1.04,1.44,2.37-10.33,11.91-13.77.26-6.1,8.71-17.5,8.07-16.36-4.92.22-2.51,6.79-20.56-1.82-15.78-4.26,2.36-6.08,25.13-7.79,25.88-13.08.99-6.8-2.3-8.31-3.11-.83-.44-9.51,9.85-15.06-2.07-13.27,14.17-21.02-.12-15.84-14.75,3.41-9.63,14.39-16.38,20-9.57-.05-3.16,4.86-2.07,9.61-1.81-1.07,9.44-8.93,28.29-.78,26.13,5.27-1.39,8.97-31.51,10.65-37.52,2.51-.6,5.02-1.21,7.53-1.81ZM871.76,42.03c-7.03.88-13.16,27.41-2.6,22.25,3.54-1.73,6.36-19.92,5.97-20.96-1.13-.43-2.25-.86-3.38-1.29Z"/>
        <path class="cls-1" d="M1004.75,38.41c2.66-.44,7.4-.38,7.79,3.11.65-3.87,3.99-2.59,9.61-2.33.21,5.77-7.32,24.74-2.86,26.13,7.51,2.34,8.7-20.2,10.65-26.13,3.03-.09,6.06-.17,9.09-.26-1.64,7.5-3.29,15.01-4.93,22.51-.11,6.12,6.78.94,4.16,6.21-1.98,3.99-10.77,5.54-13.25-2.33-3.69,6.3-14.1,8.71-16.1,0-3.14,4.54-9.46,7.63-14.55,4.14-8.51-5.85-.24-29.29,10.39-31.05ZM1008.38,42.03c-6.42,1.17-13.17,27.04-2.6,22.25,3.53-1.6,6.74-19.38,6.49-20.44-.29-1.23-2.62-2.04-3.9-1.81Z"/>
        <path class="cls-2" d="M767.87,13.05c14.26-.89,31.92,6.08,30.13,22.77h-14.55c.65-15.64-29.99-12.92-24.16.26,3.81,8.6,44.73,3.02,41.56,31.05-3.13,27.68-62.1,25.76-58.96-5.43h14.55c.09,17.98,31.95,16.03,29.35,2.33-2.01-10.6-37.03-6.18-41.56-24.84-3.69-15.18,9.94-25.28,23.64-26.13Z"/>
        <path class="cls-2" d="M18.8,14.61h20.78l.78.78c5.45,15.78,10.91,31.57,16.36,47.35,5.11-15.78,10.22-31.57,15.32-47.35l.78-.78h20.78l.78.78v69.35h-14.55c-.09-16.47-.17-32.95-.26-49.42-5.89,16.56-11.77,33.12-17.66,49.68-3.9-.09-7.79-.17-11.69-.26-5.8-16.3-11.6-32.6-17.4-48.91-.09,16.3-.17,32.6-.26,48.91-4.59.09-9.18.17-13.77.26V14.61Z"/>
        <path class="cls-2" d="M108.15,14.61c4.93.09,9.87.17,14.8.26.99,10.82-2.14,46.3,2.08,53.3,4.48,7.44,23.6,8.55,26.49-3.11,1.87-7.53-.34-39.34.52-50.2h15.58c-2.53,29.97,12.64,74.93-34.03,71.68-38.06-2.65-23.24-45.43-26.23-71.16l.78-.78Z"/>
        <path class="cls-2" d="M175.68,14.61c19.13.09,38.27.17,57.4.26-.09,4.4-.17,8.8-.26,13.2-6.84.09-13.68.17-20.52.26-.09,18.89-.17,37.78-.26,56.67-5.11-.09-10.22-.17-15.32-.26V28.32c-7.01-.09-14.03-.17-21.04-.26v-13.46Z"/>
        <path class="cls-2" d="M241.13,14.61c5.11.09,10.22.17,15.32.26.75,10.46-1.21,43.75.52,50.2,2.99,11.19,25.02,12.08,28.05,0,1.79-7.14-.28-39.4.52-50.2h15.58c-2.49,30,12.49,74.92-34.03,71.68-38.24-2.67-23.44-46.37-25.97-71.94Z"/>
        <path class="cls-2" d="M334.12,14.61h15.06l.78.78c8.57,23.2,17.14,46.4,25.71,69.61h-15.58c-1.9-5.18-3.81-10.35-5.71-15.53h-25.97c-2.08,5.18-4.16,10.35-6.23,15.53-5.11-.09-10.22-.17-15.32-.26,9.09-23.37,18.18-46.75,27.27-70.12ZM341.39,32.2c-3.03,8.37-6.06,16.73-9.09,25.1,5.97.09,11.95.17,17.92.26-2.94-8.45-5.89-16.91-8.83-25.36Z"/>
        <path class="cls-2" d="M382.43,14.61h14.55l.78.78v56.41c11.34.09,22.68.17,34.03.26v12.94c-16.54-.09-33.07-.17-49.61-.26.09-23.37.17-46.75.26-70.12Z"/>
        <path class="cls-2" d="M468.14,14.61h48.83l.78.78v11.9l-.78.78c-11.17.09-22.34.17-33.51.26.09,5.26.17,10.52.26,15.78h29.09c.09,3.88.17,7.76.26,11.64-9.78.09-19.57.17-29.35.26-.17,9.66-.35,19.32-.52,28.98-5.11-.09-10.22-.17-15.32-.26.09-23.37.17-46.75.26-70.12Z"/>
        <path class="cls-2" d="M526.84,14.61c4.93.09,9.87.17,14.8.26.99,10.82-2.14,46.3,2.08,53.3,4.48,7.44,23.6,8.55,26.49-3.11,1.87-7.53-.34-39.34.52-50.2h15.58c-2.53,29.97,12.64,74.93-34.03,71.68-38.06-2.65-23.24-45.43-26.23-71.16l.78-.78Z"/>
        <path class="cls-2" d="M600.08,14.61h14.55c9.87,15.53,19.74,31.05,29.61,46.58.09-15.27.17-30.53.26-45.8l.78-.78c4.59.09,9.18.17,13.77.26-.09,23.37-.17,46.75-.26,70.12-5.11-.09-10.22-.17-15.32-.26-9.61-15.44-19.22-30.88-28.83-46.32-.09,15.44-.17,30.88-.26,46.32h-14.55c.09-23.37.17-46.75.26-70.12Z"/>
        <path class="cls-2" d="M673.33,14.61c17.9,1.12,43.03-4.73,55.32,11.64,10.29,13.72,8.63,42.6-5.97,53.05-12.41,8.88-35.1,5-50.13,5.43V15.38l.78-.78ZM688.39,28.06c-.09,14.58-.17,29.15-.26,43.73,7.21.18,17.36,1.51,23.64-2.33,9.4-5.75,9.8-24.74,4.93-33.38-5.82-10.35-18.29-7.77-28.31-8.02Z"/>
        <path class="cls-1" d="M1026.05,76.19c11.02-.53,44.44,2.47,45.97,4.92,1.59,2.54-13.62-1.58-15.32-1.81-33.05-4.46-66.24.86-94.54,18.63-4.25,2.67-10.38,9.06-10.65,6.47,3.38-2.67,6.75-5.35,10.13-8.02,17.92-11.78,43.01-19.15,64.41-20.18Z"/>
      </g>
    </g>
  </g>
</svg>